<svg width="342" height="328" viewBox="0 0 342 328" fill="none" xmlns="http://www.w3.org/2000/svg">
<g clip-path="url(#clip0_2327_2192)">
<path d="M109.777 244.569C116.134 244.569 122.347 242.686 127.632 239.159C132.911 235.633 137.03 230.621 139.465 224.756C141.893 218.892 142.534 212.439 141.293 206.213C140.051 199.988 136.996 194.27 132.502 189.781C128.007 185.293 122.278 182.236 116.052 180.998C109.818 179.759 103.353 180.395 97.4878 182.824C91.6158 185.253 86.5963 189.367 83.0636 194.644C79.5376 199.922 77.6484 206.127 77.6484 212.475C77.6484 220.986 81.038 229.15 87.0601 235.169C93.0889 241.187 101.259 244.569 109.777 244.569Z" fill="#4FCCC4"/>
<path d="M108.406 51.8526C113.487 51.8526 118.458 50.3467 122.687 47.5254C126.908 44.7041 130.209 40.694 132.153 36.0023C134.097 31.3105 134.608 26.1478 133.613 21.1671C132.624 16.1864 130.175 11.6113 126.581 8.02045C122.987 4.42953 118.404 1.9841 113.419 0.993375C108.433 0.00264841 103.263 0.511125 98.5645 2.45451C93.8724 4.39788 89.8554 7.68889 87.0319 11.9113C84.2085 16.1338 82.7012 21.098 82.7012 26.1763C82.7012 32.9861 85.4087 39.517 90.2305 44.3322C95.0454 49.1474 101.586 51.8526 108.406 51.8526Z" fill="#4B5256"/>
<path d="M173.928 52.898C170.313 57.8721 168.82 64.078 169.781 70.1502C170.743 76.2229 174.085 81.664 179.063 85.2781C184.042 88.8914 190.255 90.3813 196.338 89.4194C202.415 88.4568 207.864 85.1221 211.479 80.1483L231.809 52.2168C235.43 47.2427 236.917 41.0369 235.956 34.9645C234.994 28.8921 231.652 23.4506 226.674 19.837C221.695 16.2234 215.482 14.7338 209.405 15.6958C203.322 16.6579 197.879 19.9927 194.258 24.9668L173.928 52.898Z" fill="#FF6B6B"/>
<path d="M235.546 100.42C233.05 102.165 230.922 104.383 229.286 106.95C227.649 109.515 226.53 112.378 226.005 115.375C225.473 118.371 225.541 121.443 226.196 124.414C226.858 127.385 228.092 130.198 229.838 132.691C231.584 135.185 233.807 137.309 236.378 138.946C238.943 140.581 241.807 141.696 244.808 142.225C247.809 142.755 250.885 142.689 253.858 142.032C256.832 141.374 259.648 140.138 262.144 138.393L314.658 101.688C319.705 98.1641 323.136 92.7843 324.206 86.7307C325.284 80.6778 323.899 74.4471 320.373 69.4099C316.848 64.3725 311.46 60.9411 305.404 59.8704C299.341 58.7999 293.107 60.1777 288.06 63.7009L235.546 100.42Z" fill="#4FCCC4"/>
<path d="M268.661 171.626C265.749 172.516 263.034 173.971 260.688 175.907C258.335 177.843 256.385 180.222 254.959 182.91C252.068 188.338 251.454 194.69 253.254 200.569C255.048 206.449 259.113 211.373 264.548 214.26C269.984 217.147 276.34 217.759 282.226 215.962L323.412 203.386C329.298 201.589 334.228 197.529 337.12 192.101C340.005 186.672 340.619 180.32 338.818 174.44C337.018 168.561 332.953 163.637 327.524 160.75C322.089 157.864 315.726 157.253 309.84 159.05L268.661 171.626Z" fill="#4B5256"/>
<path d="M269.976 246.915C263.818 246.915 257.918 249.357 253.567 253.704C249.216 258.051 246.768 263.946 246.768 270.094C246.768 276.242 249.216 282.137 253.567 286.484C257.918 290.831 263.818 293.274 269.976 293.274H290.668C296.82 293.274 302.726 290.831 307.077 286.484C311.428 282.137 313.87 276.242 313.87 270.094C313.87 263.946 311.428 258.051 307.077 253.704C302.726 249.357 296.82 246.915 290.668 246.915H269.976Z" fill="#FF6B6B"/>
<path d="M175.399 212.725C175.467 199.742 171.676 187.032 164.508 176.204C157.333 165.377 147.103 156.92 135.113 151.906C123.124 146.893 109.914 145.548 97.1602 148.043C84.4068 150.537 72.6832 156.759 63.4694 165.918C54.2556 175.078 47.9744 186.764 45.4237 199.494C42.8662 212.223 44.1551 225.424 49.1201 237.422C54.085 249.42 62.5077 259.676 73.3106 266.888C84.1203 274.101 96.826 277.945 109.825 277.934C127.127 277.82 143.7 270.921 155.962 258.726C168.225 246.529 175.208 230.011 175.399 212.725ZM218.215 212.391C218.27 233.942 211.879 255.018 199.876 272.924C187.873 290.829 170.796 304.752 150.827 312.909C130.858 321.066 108.904 323.088 87.7758 318.716C66.6543 314.344 47.3128 303.777 32.2338 288.366C17.1547 272.955 7.01342 253.401 3.1192 232.205C-0.775016 211.008 1.74841 189.133 10.3689 169.377C18.9894 149.621 33.3113 132.882 51.5071 121.301C69.696 109.72 90.9403 103.824 112.505 104.365C140.754 105.039 167.611 116.712 187.361 136.894C207.112 157.076 218.181 184.169 218.215 212.391Z" fill="#4B5256"/>
</g>
<defs>
<clipPath id="clip0_2327_2192">
<rect width="341" height="327" fill="white" transform="translate(0.5 0.5)"/>
</clipPath>
</defs>
</svg>
