<svg xmlns="http://www.w3.org/2000/svg" xmlns:xlink="http://www.w3.org/1999/xlink" id="emGTaOR2Azn1" shape-rendering="geometricPrecision" text-rendering="geometricPrecision" viewBox="0 0 1152.82 514.72"><style>@keyframes emGTaOR2Azn6_tr__tr{0%{transform:translate(850.104297px,232.253357px) rotate(28deg);animation-timing-function:cubic-bezier(.42,0,.58,1)}50%{transform:translate(850.104297px,232.253357px) rotate(-23.11012deg);animation-timing-function:cubic-bezier(.42,0,.58,1)}}#emGTaOR2Azn6_tr{animation:emGTaOR2Azn6_tr__tr 3000ms linear infinite normal forwards}</style><g id="emGTaOR2Azn2"><path id="emGTaOR2Azn3" fill="#FFF" stroke="none" stroke-width="1" d="M1060.5,301C1059.615839,298.902079,1058.280955,297.024365,1056.59,295.5C1055.174477,294.163485,1053.285982,293.444059,1051.34,293.5C1049.335701,293.656164,1047.531538,294.774447,1046.5,296.5Q1042.11,305.18,1036.97,313.45C1033.686749,318.745446,1030.009702,323.786342,1025.97,328.53C1022.363267,332.817963,1018.215292,336.619713,1013.63,339.84C1009.750207,342.656757,1005.244448,344.489259,1000.5,345.18C1002.648234,341.236404,1004.561568,337.169316,1006.23,333Q1008.69,326.82,1011.16,320.62C1013.10716,315.450803,1014.70083,310.155273,1015.93,304.77C1017.409501,298.384395,1018.177512,291.854622,1018.22,285.3C1018.251268,280.667044,1017.808971,276.043021,1016.9,271.5C1016.041369,267.043775,1014.492747,262.748794,1012.31,258.77C1010.159709,254.931104,1007.258775,251.564253,1003.78,248.87C999.816138,245.894349,995.281978,243.766834,990.46,242.62C984.793578,241.61526,978.976703,241.850664,973.41,243.31C967.943783,244.808755,962.768355,247.215616,958.1,250.43C955.214722,246.95154,951.947539,243.808469,948.36,241.06Q943.18,237.16,940.67,238.63C933.058167,241.753117,925.974601,246.033615,919.67,251.32C913.3012,256.649659,907.781246,262.918196,903.3,269.91C898.709467,277.090883,895.107081,284.857372,892.59,293C890.002779,301.314429,888.68791,309.972334,888.69,318.68Q888.69,321.87,888.84,324.98Q886.95,329.08,884.77,333.1C880.303351,341.485933,874.741257,349.240581,868.23,356.16C862.347814,362.42426,855.387032,367.579642,847.68,371.38C840.459808,374.967252,832.327068,376.298317,824.34,375.2C819.539992,374.509443,815.187717,372.004022,812.18,368.2C808.762151,364.19444,806.321356,359.44978,805.05,354.34C811.416898,354.044176,817.761055,353.37637,824.05,352.34C831.027095,351.23453,837.893519,349.517924,844.57,347.21C853.651603,344.163983,861.849981,338.942153,868.45,332Q878.23,321.71,879.45,301.28C879.621518,295.464414,878.332211,289.698634,875.7,284.51C873.217561,279.684083,869.856756,275.363533,865.79,271.77C861.723835,268.216955,857.120007,265.331125,852.15,263.22C847.365095,261.133869,842.318947,259.707492,837.15,258.98C830.2455,257.955014,823.193951,258.691127,816.65,261.12C809.711737,263.53491,803.228253,267.097784,797.47,271.66C791.448689,276.408978,786.226009,282.090795,782,288.49C772.56467,302.871804,767.586493,319.71968,767.69,336.92L767.69,337.13Q766.43,338.48,765.17,339.74C762.022057,342.98752,758.52022,345.872174,754.73,348.34Q749.73,351.49,745.33,351Q738.94,350.28,736.78,346.06C735.27762,342.863203,734.742342,339.296998,735.24,335.8C735.773715,331.163172,736.778915,326.592861,738.24,322.16Q740.64,314.59,743.69,306.9Q746.74,299.21,749.46,292.08C751.078461,287.992397,752.303993,283.759959,753.12,279.44C753.444211,277.433009,753.444211,275.386991,753.12,273.38C752.724173,270.499371,751.700009,267.740957,750.12,265.3C748.309074,262.506232,745.831263,260.207126,742.91,258.61Q738.2,255.92,730.03,256.72Q721.03,257.72,710.79,263.57C703.603604,267.736062,696.803303,272.535093,690.47,277.91C683.662242,283.634427,677.194567,289.751506,671.1,296.23Q661.86,306.05,654.49,314.8C655.874599,302.472909,658.174278,290.265894,661.37,278.28C664.065421,268.220031,667.518623,258.378572,671.7,248.84C675.148062,249.961865,678.678922,250.811144,682.26,251.38C686.704488,252.03804,691.205329,252.232417,695.69,251.96C702.444071,251.751122,709.153082,250.781669,715.69,249.07C723.418441,247.117708,730.709245,243.725059,737.18,239.07Q747.5,231.79,755.24,218.98Q762.98,206.17,764.95,185.68C765.0482,182.096637,764.790267,178.51238,764.18,174.98C763.410406,170.122739,761.778023,165.442339,759.36,161.16C756.752992,156.493153,753.142888,152.462953,748.79,149.36Q742.01,144.45,730.79,144.77C720.847504,145.065177,711.056669,147.286199,701.96,151.31C692.805283,155.381424,684.284518,160.749842,676.66,167.25C668.651984,174.109559,661.470254,181.878579,655.26,190.4C648.709388,199.335964,642.829956,208.745061,637.67,218.55C632.183976,217.276576,626.571858,216.625798,620.94,216.61C618.454195,216.522886,616.032485,217.409053,614.19,219.08C612.446258,220.570672,611.19469,222.554355,610.6,224.77C610.062946,226.866932,610.484198,229.094069,611.75,230.85C613.06,232.77,615.61,233.97,619.43,234.45L629.34,235.88C625.165448,245.701074,621.530041,255.742675,618.45,265.96C615.521814,275.632456,613.184172,285.47393,611.45,295.43Q610.97,298.28,610.56,301.05C607.730308,305.688314,604.497834,310.068551,600.9,314.14C593.592315,322.443445,585.305229,329.830636,576.22,336.14Q571.57,327.63,567.34,317.8C564.535352,311.326297,563.124773,304.334731,563.2,297.28Q563.29,286.59,569.49,274.98Q575.69,263.37,592,251Q593.77,249.74,591.32,246.53C589.187812,243.973498,586.513077,241.923893,583.49,240.53C573.673853,235.889559,562.493077,235.02457,552.08,238.1C551.24,238.42,549.58,239.1,547.08,240.1C544.162924,241.369924,541.390412,242.948948,538.81,244.81C535.454233,247.20767,532.306434,249.883801,529.4,252.81C526.004071,256.216427,523.114614,260.09261,520.82,264.32C518.18614,269.233328,516.321141,274.521427,515.29,280C514.186294,285.982481,513.973995,292.095363,514.66,298.14C511.180814,305.346455,507.096149,312.244555,502.45,318.76C496.995052,326.539615,490.528189,333.557994,483.22,339.63C476.627313,345.123828,469.101045,349.388262,461,352.22C453.399741,354.898343,445.169065,355.225897,437.38,353.16C432.695138,351.879252,428.681757,348.84684,426.17,344.69C423.264352,340.296677,421.419175,335.28834,420.78,330.06C427.124196,330.552013,433.491754,330.672219,439.85,330.42C446.912253,330.179259,453.939497,329.315912,460.85,327.84C470.23731,325.9403,479.018478,321.776282,486.43,315.71Q497.43,306.71,501.11,286.57C501.981257,280.815694,501.403838,274.934952,499.43,269.46C497.558992,264.366835,494.750571,259.669174,491.15,255.61C487.548736,251.584377,483.329201,248.158115,478.65,245.46C474.167896,242.8116,469.342624,240.792658,464.31,239.46C457.584886,237.600686,450.499112,237.469978,443.71,239.08C436.528027,240.629188,429.658494,243.377677,423.39,247.21C416.79415,251.167862,410.878469,256.161751,405.87,262C394.74751,275.11922,387.754132,291.235301,385.77,308.32Q382.58,332.41,394.41,349.48C395.916086,351.649221,397.587741,353.69867,399.41,355.61C397.305898,360.31634,394.761225,364.813045,391.81,369.04Q385.1,378.54,375.81,381.34C373.4,382.03,371.58,381.16,370.33,378.71C368.875877,375.490195,368.012152,372.035298,367.78,368.51C367.315311,363.564369,367.128351,358.596569,367.22,353.63Q367.31,345.3,367.6,337.14Q367.89,328.98,367.96,321.93C368.08158,318.252848,367.880813,314.572113,367.36,310.93Q365.9,303.5,362.56,299.3C360.437111,296.602371,357.845754,294.309104,354.91,292.53C352.041701,290.805206,349.03065,289.329791,345.91,288.12C342.733913,286.884627,339.66658,285.386082,336.74,283.64C334.937604,282.74761,333.327326,281.511025,332,280C331.254354,278.999532,330.866913,277.777329,330.9,276.53C330.951045,275.04981,331.13512,273.577211,331.45,272.13C331.813042,270.010462,331.917139,267.854656,331.76,265.71C331.591925,263.512014,330.653472,261.443876,329.11,259.87C327.36599,257.910075,325.299512,256.26298,323,255C320.469753,253.634471,317.783562,252.58014,315,251.86C312.39833,251.135613,309.697588,250.83178,307,250.96C304.756265,251.053831,302.578122,251.744209,300.69,252.96C298.896999,254.1794,297.784925,256.173718,297.69,258.34Q296.85,265.88,295.69,276.12Q294.53,286.36,292.92,297.43Q291.33,308.5,289.67,319.37Q288.01,330.24,286.48,339.19C285.974192,341.206462,286.510957,343.342262,287.91,344.88C289.270992,346.344653,291.052921,347.350919,293.01,347.76C294.941945,348.219904,296.971164,348.037345,298.79,347.24C300.660496,346.378762,301.940419,344.597503,302.16,342.55Q303.86,331.44,304.91,323.82Q305.96,316.2,306.6,312.7C310.816593,314.404723,315.164083,315.765822,319.6,316.77C323.21,317.52,325.44,319.08,326.27,321.43C327.510086,325.349336,327.968758,329.473981,327.62,333.57Q327.21,340.73,326.49,348.93C325.996324,354.555698,325.802716,360.203702,325.91,365.85C326.012753,371.645726,327.052868,377.38662,328.99,382.85C330.464105,387.035489,332.664435,390.92838,335.49,394.35C338.349522,397.864489,341.934655,400.719633,346,402.72C350.522876,404.846312,355.462277,405.939402,360.46,405.92C366.675147,405.872401,372.825712,404.654501,378.59,402.33C384.540089,400.075706,389.979871,396.655444,394.59,392.27C399.382746,387.657224,403.55448,382.440036,407,376.75C409.171714,373.200495,411.135033,369.52762,412.88,365.75C418.207767,368.529782,423.880507,370.591068,429.75,371.88Q449.33,376.2,466.75,371.16C477.94451,368.002628,488.395615,362.641083,497.49,355.39C506.298987,348.338178,513.782379,339.774605,519.59,330.1C520.72,328.23,521.74,326.36,522.71,324.48C523.25,325.63,523.81,326.78,524.39,327.94Q527.94,334.94,531.92,341.82Q535.9,348.7,539.49,355.36Q533.09,358.22,527.35,360.96Q521.61,363.7,516.79,366.58C513.764499,368.361193,510.947086,370.474253,508.39,372.88C506.10278,375.039152,504.181133,377.555192,502.7,380.33Q496.58,392.33,497.25,401.22C497.47363,406.599222,499.542994,411.737319,503.11,415.77C506.826202,419.711612,511.606016,422.490573,516.87,423.77C522.86061,425.337033,529.093954,425.754399,535.24,425C542.028089,424.20649,548.632043,422.265543,554.77,419.26C561.279219,416.152204,567.129063,411.819992,572,406.5C577.191166,400.688186,581.09638,393.845543,583.46,386.42Q587.46,374.48,585.83,358.62C585.52562,356.496677,584.954438,354.420265,584.13,352.44C589.316027,348.894733,594.281844,345.037625,599,340.89C602.228844,338.063804,605.296975,335.059105,608.19,331.89C608.272235,336.212848,608.6397,340.525554,609.29,344.8Q610.85,354.52,614.53,360.72Q618.21,366.92,624.16,368.09C627.666747,368.861094,631.281709,369.010025,634.84,368.53Q640.25,367.82,644.27,362.79C645.75,361.04,647.08,357.79,648.27,352.91C649.46,348.03,650.47,343.09,651.4,337.91Q656.32,331.35,662.57,323.26Q668.82,315.17,675.29,308.18C679.165209,303.931599,683.331984,299.958627,687.76,296.29Q693.76,291.4,698.17,291.22Q701.69,291.04,700.99,295.55C700.278947,299.562953,699.317061,303.527392,698.11,307.42Q695.94,314.78,693.64,324.02C692.109785,330.097093,691.556199,336.378947,692,342.63C692.453857,348.896525,694.313192,354.980378,697.44,360.43Q702.2,368.86,714.05,374.49Q725.24,379.89,735.83,378.49C742.986491,377.468267,749.853948,374.975963,756,371.17C761.440635,367.80835,766.474096,363.828561,771,359.31C773.207571,365.733462,776.679162,371.649789,781.21,376.71Q795.04,392.21,819.04,394.71Q839.04,396.61,855.66,389.48C866.428406,384.973451,876.181455,378.348995,884.34,370C889.061487,365.144678,893.258008,359.805176,896.86,354.07C897.79,355.84,898.79,357.59,899.86,359.3Q911.36,377.45,937.18,383.3Q952.58,386.45,965.18,380.56C973.550261,376.706851,981.174064,371.405396,987.7,364.9Q1002.19,368.25,1013.32,364.09C1020.801937,361.284081,1027.614411,356.944535,1033.32,351.35C1039.405521,345.385182,1044.677659,338.643704,1049,331.3Q1055.82,319.84,1061.35,308.46C1061.782232,305.94311,1061.487356,303.355141,1060.5,301ZM688.94,218.27Q693.84,211.37,698.54,205.69Q701,202.63,704.79,198.37Q708.58,194.11,712.79,189.75Q717.02,185.38,721.59,181.46C724.218389,179.115401,727.123215,177.100493,730.24,175.46C732.496367,174.196533,735.068938,173.609806,737.65,173.77Q740.95,174.13,742.89,178.12C743.635672,180.137449,744.024803,182.26921,744.04,184.42C744.202478,187.883784,743.98113,191.35491,743.38,194.77C742.685646,198.989708,741.552845,203.125438,740,207.11C738.279892,211.500318,735.813558,215.560128,732.71,219.11C729.25419,223.072008,725.148825,226.416495,720.57,229C715.09455,232.014024,709.087349,233.939452,702.88,234.67C698.609783,235.32501,694.287339,235.57612,689.97,235.42C686.304817,235.260031,682.660792,234.778177,679.08,233.98C682.082701,228.570386,685.374119,223.326148,688.94,218.27ZM459.31,267.27C464.91,264.39,470.85,264.41,474.97,266.76C479.09,269.11,481.23,273.37,481.41,279.55Q481.41,291.43,472.9,298.99C467.558155,303.862448,461.124495,307.38107,454.14,309.25C449.41017,310.217501,444.623988,310.885496,439.81,311.25C434.691167,311.678666,429.548623,311.748838,424.42,311.46Q429.25,295.86,437.18,285.27C442.890135,277.468215,450.510922,271.26621,459.31,267.26ZM546.63,399.59C543.804513,402.459884,540.364896,404.651529,536.57,406C533.620094,407.01152,530.462696,407.262598,527.39,406.73C524.710316,406.237057,522.212854,405.031505,520.16,403.24C518.233006,401.602416,516.880418,399.391321,516.3,396.93C515.758744,394.27793,516.110356,391.521292,517.3,389.09Q519.16,384.89,524.51,381.33C527.282283,379.611242,530.245655,378.221847,533.34,377.19Q539.41,374.95,547.49,371.52C549.674392,376.547843,551.025407,381.897864,551.49,387.36C551.826522,391.962607,550.035614,396.465673,546.63,399.58ZM836.23,287.19C841.44,283.64,846.78,282.97,851.16,284.8C855.54,286.63,858.16,290.6,859.16,296.71C860.227218,304.052937,857.969411,311.489771,853,317C848.288045,322.485186,842.327533,326.758373,835.62,329.46C831.039197,331.013589,826.362786,332.269539,821.62,333.22C816.591467,334.268549,811.495663,334.963583,806.37,335.3Q809.26,319.22,815.84,307.75C820.800905,299.289447,827.813374,292.215072,836.23,287.18ZM964.39,359.27C960.359029,361.394055,956.014076,362.859253,951.52,363.61C947.371702,364.412607,943.099874,364.320556,938.99,363.34C934.439078,362.150491,930.463233,359.373429,927.78,355.51Q923.37,349.45,923.2,337.02C923.441561,327.416124,925.611203,317.958796,929.58,309.21C930.891226,319.546169,934.701098,329.407214,940.68,337.94C947.098092,347.073428,955.648994,354.50183,965.59,359.58ZM996.22,312.46Q992.93,320.15,989.46,327.78C987.328557,332.517153,984.64316,336.984983,981.46,341.09Q970.46,335.66,966.16,326.86Q961.86,318.06,961.07,302.86C961.269204,298.629264,962.140084,294.457141,963.65,290.5C965.337979,285.649965,967.551126,280.999003,970.25,276.63C972.711002,272.489792,975.906647,268.833269,979.68,265.84C983.24,263.07,986.89,262.16,990.63,263.14C994.815819,264.019146,998.243526,267.011288,999.68,271.04C1001.199365,275.324709,1001.901506,279.856406,1001.75,284.4C1001.664666,290.044096,1000.994417,295.664137,999.75,301.17C998.993079,305.048715,997.809206,308.831743,996.22,312.45Z"/><path id="emGTaOR2Azn4" fill="#FFF" stroke="none" stroke-width="1" d="M193.24,179.48C207.576742,166.111339,223.203109,154.196444,239.89,143.91C255.550793,134.114975,272.642595,126.820763,290.55,122.29Q300.29,119.8,312.03,117.45C319.824429,115.881193,327.772878,115.210155,335.72,115.45C343.845943,115.744368,351.853001,117.495489,359.36,120.62Q371.06,125.4,380.64,136.77C383.08,138.35,384.47,138.05,384.79,135.87C385.045298,133.007902,384.704808,130.123951,383.79,127.4C382.623428,123.609113,380.976731,119.98302,378.89,116.61C377.160055,113.452068,374.748304,110.719205,371.83,108.61C361.547654,100.214656,349.383799,94.436396,336.38,91.77C322.804821,89.051248,308.881777,88.524576,295.14,90.21C280.069,92.031857,265.243537,95.502645,250.93,100.56C235.774924,105.826348,221.045226,112.2451,206.87,119.76C192.757392,127.232597,179.10919,135.551088,166,144.67C153.956684,152.944639,142.44101,161.962133,131.52,171.67C122.448081,179.64863,114.148071,188.464253,106.73,198Q97,210.75,94.39,220.4Q90.56,228.35,91.48,240.79C92.01693,248.724062,93.576502,256.55553,96.12,264.09Q99.85,274.95,105.45,281.64Q111.05,288.33,116.59,284.77C117.59,282.17,118.75,279.5,119.99,276.77C121.23,274.04,122.63,271.26,124.15,268.56C132.701113,252.582735,142.56505,237.34364,153.64,223C165.58033,207.395231,178.828221,192.835933,193.24,179.48Z" transform="matrix(1 0 0 1 0 0.000005)"/><path id="emGTaOR2Azn5" fill="#FFF" stroke="none" stroke-width="1" d="M290.06,238C290.569147,234.842813,290.673321,231.63356,290.37,228.45C290.081731,225.274582,289.210504,222.17952,287.8,219.32C286.29,215.97,284.67,214.6,282.97,215.23C281.27,215.86,279.33,216.68,277.17,217.67Q268.89,221.43,260.09,225.51Q251.29,229.59,242.8,234.19L240.21,203.92Q239.64,201.28,232.88,197.4C228.206593,194.742772,223.347271,192.426741,218.34,190.47C213.679764,188.589492,208.865006,187.117293,203.95,186.07Q197.33,184.73,196.69,187.24Q197.41,199.74,198.23,218.13Q199.05,236.52,200.75,259.08Q192.89,264.73,185.29,270.72C180.347222,274.61142,175.642119,278.795588,171.2,283.25C168.271322,285.657625,166.645294,289.302298,166.81,293.09C167.03096,297.288826,167.728779,301.448896,168.89,305.49C169.54,308.49,170.55,310.4,171.89,311.16C173.237787,311.928493,174.849577,312.084942,176.32,311.59C178.014624,311.06285,179.578772,310.183656,180.91,309.01C182.151076,307.939918,183.449677,306.938426,184.8,306.01L194.9,297.9C198.05,295.38,201.21,292.98,204.41,290.71Q208.16,317.17,214.87,344.57C219.352811,362.864462,225.460402,380.722052,233.12,397.93Q234.52,400.78,241.76,403.17C246.780091,404.80892,251.932669,406.010073,257.16,406.76C262.1208,407.529341,267.142578,407.833995,272.16,407.67C276.72,407.47,279.06,406.43,279.16,404.57Q269.26,386.15,260.67,350.07Q252.08,313.99,246.2,266.65Q254.09,262.98,262.6,259.35Q271.11,255.72,281.6,251.48C283.886545,250.369707,285.775541,248.58197,287.01,246.36C288.561211,243.798462,289.597267,240.95865,290.06,238Z"/><g id="emGTaOR2Azn6_tr" transform="translate(850.104297,232.253357) rotate(28)"><path id="emGTaOR2Azn6" fill="#FFF" stroke="none" stroke-width="1" d="M822.71,182.65C821.619937,189.513656,821.619937,196.506344,822.71,203.37C822.86,204.25,823.03,205.15,823.23,206.03C829.23,232.72,852.3,240.46,872.85,222.69C885.983871,211.176156,896.406477,196.898006,903.37,180.88C906.841007,172.727264,909.689162,164.323199,911.89,155.74C913.06,151.48,912.18,146.93,907.62,144.39C903.06,141.85,898.8,143.57,894.83,146.07C893.479085,147.024703,892.211243,148.091831,891.04,149.26C882.55,156.85,874.09,164.47,865.58,172.03C860.41,176.63,855.85,175.61,854,168.91C852.63,163.97,852.41,158.71,851.75,153.59C851.49,151.54,851.75,149.4,851.25,147.41C849.62,140.41,844.79,138.94,839.61,143.89C838.264195,145.180074,837.057579,146.607903,836.01,148.15C829.01106,158.489108,824.462383,170.288307,822.71,182.65Z" transform="translate(-850.104297,-232.253357)"/></g></g></svg>